<?xml version="1.0" encoding="UTF-8" standalone="no"?>
<!DOCTYPE svg PUBLIC "-//W3C//DTD SVG 1.1//EN" "http://www.w3.org/Graphics/SVG/1.1/DTD/svg11.dtd">
<svg width="100%" height="100%" viewBox="0 0 416 555" version="1.1" xmlns="http://www.w3.org/2000/svg" xmlns:xlink="http://www.w3.org/1999/xlink" xml:space="preserve" xmlns:serif="http://www.serif.com/" style="fill-rule:evenodd;clip-rule:evenodd;stroke-linejoin:round;stroke-miterlimit:2;">
    <g id="Artboard1" transform="matrix(0.335228,0,0,0.317286,0,0)">
        <rect x="0" y="0" width="1240.16" height="1748.03" style="fill:none;"/>
        <g transform="matrix(2.98305,0,0,3.15173,-925.211,-441.985)">
            <g transform="matrix(1.03891,0,0,1.03891,-20.9303,-21.4544)">
                <circle cx="521.229" cy="464.038" r="54.064" style="fill:rgb(33,116,234);"/>
            </g>
            <path d="M494.644,335.703L554.736,336.743C529.495,348.043 506.113,362.028 483.725,377.448C467.721,387.431 456.189,399.577 445.123,411.949C436.478,421.947 429.209,433.126 422.782,445.026C418.293,452.297 415.03,460.009 411.651,468.548C407.682,479.102 406.534,489.528 406.057,499.923C404.215,496.121 402.301,489.893 400.301,480.703C398.592,468.502 398.48,456.395 399.465,444.353C401.779,427.902 405.82,412.107 413.84,399.46C418.953,390.328 424.825,381.515 432.951,373.651C440.491,366.035 448.285,359.435 456.3,353.72C464.246,348.735 472.461,344.356 481.041,340.798L494.644,335.703Z" style="fill:rgb(33,116,234);"/>
            <path d="M379.752,687.725C389.517,668.559 401.548,651.109 416.543,635.904C427.152,625.949 437.909,617.245 448.835,609.984L521.373,565.441C539.309,554.363 557.388,543.392 573.38,530.856C591.762,511.716 602.762,491.695 605.495,466.812C606.594,447.013 602.801,429.26 593.005,414.018C582.848,400.879 572.964,392.5 563.005,385.898L537.999,375.408L578.271,353.72C588.485,359.545 597.635,366.345 605.472,374.348C614.37,383.737 622.272,394.12 628.594,406.084C634.751,418.698 638.326,432.547 639.928,447.34C641.668,467.072 638.772,485.834 631.994,503.784C625.001,522.341 613.929,538.292 599.805,552.294C583.413,568.004 564.998,581.03 544.643,591.393L477.397,631.292L422.767,663.708L379.752,687.725Z" style="fill:rgb(33,116,234);"/>
            <path d="M438.102,470.852C438.98,478.702 440.459,485.716 443.904,495.169C448.749,506.314 455.765,515.38 461.625,521.579C467.355,526.997 473.701,531.612 479.43,534.618C487.887,538.915 496.889,541.933 504.965,543.948C489.736,551.884 475.449,560.4 461.868,569.35C455.272,564.638 448.83,559.344 442.741,552.73C437.166,545.99 433.641,538.69 430.856,531.189C429.217,523.644 428.126,513.433 428.698,505.723C429.107,500.212 430.356,494.656 431.878,489.268L438.102,470.852Z" style="fill:rgb(33,116,234);"/>
        </g>
        <g transform="matrix(2.98305,0,0,3.15173,-925.211,-441.985)">
            <g transform="matrix(0.74776,0.858949,-0.987483,0.859655,421.509,-551.089)">
                <path d="M677.635,242.854C677.635,239.555 674.557,236.877 670.764,236.877C666.972,236.877 663.894,239.555 663.894,242.854L663.894,267.762C663.894,271.06 666.972,273.738 670.764,273.738C674.557,273.738 677.635,271.06 677.635,267.762L677.635,242.854Z" style="fill:rgb(33,116,234);"/>
            </g>
            <g transform="matrix(1.07937,-1.18199e-16,0,1.39388,-204.589,-188.836)">
                <path d="M677.635,242.198C677.635,239.261 674.557,236.877 670.764,236.877C666.972,236.877 663.894,239.261 663.894,242.198L663.894,268.418C663.894,271.354 666.972,273.738 670.764,273.738C674.557,273.738 677.635,271.354 677.635,268.418L677.635,242.198Z" style="fill:rgb(33,116,234);"/>
            </g>
            <g transform="matrix(0.70946,0.777556,-0.637285,0.581473,328.134,-461.78)">
                <path d="M677.635,245.26C677.635,240.634 674.557,236.877 670.764,236.877C666.972,236.877 663.894,240.634 663.894,245.26L663.894,265.355C663.894,269.982 666.972,273.738 670.764,273.738C674.557,273.738 677.635,269.982 677.635,265.355L677.635,245.26Z" style="fill:rgb(33,116,234);"/>
            </g>
            <g transform="matrix(-0.732121,0.872317,1.00285,0.841676,603.256,-555.465)">
                <path d="M677.635,242.854C677.635,239.555 674.557,236.877 670.764,236.877C666.972,236.877 663.894,239.555 663.894,242.854L663.894,267.762C663.894,271.06 666.972,273.738 670.764,273.738C674.557,273.738 677.635,271.06 677.635,267.762L677.635,242.854Z" style="fill:rgb(33,116,234);"/>
            </g>
            <g transform="matrix(-0.701936,0.784355,0.642857,0.575307,705.554,-464.704)">
                <path d="M677.635,245.26C677.635,240.634 674.557,236.877 670.764,236.877C666.972,236.877 663.894,240.634 663.894,245.26L663.894,265.355C663.894,269.982 666.972,273.738 670.764,273.738C674.557,273.738 677.635,269.982 677.635,265.355L677.635,245.26Z" style="fill:rgb(33,116,234);"/>
            </g>
            <g transform="matrix(0.933061,0,0,0.985415,25.8303,6.10823)">
                <path d="M407.698,354.548C407.698,349.712 403.552,345.787 398.445,345.787L378.771,345.787C373.664,345.787 369.518,349.712 369.518,354.548L369.518,362.057C369.518,366.893 373.664,370.819 378.771,370.819L398.445,370.819C403.552,370.819 407.698,366.893 407.698,362.057L407.698,354.548Z" style="fill:rgb(33,116,234);"/>
            </g>
            <g transform="matrix(1.20002,0,0,1.25707,-102.974,-112.802)">
                <path d="M393.729,586.218C369.18,584.469 349.804,564.876 349.804,540.997L349.804,364.941C349.804,339.913 371.089,319.594 397.307,319.594L640.443,319.594C666.661,319.594 687.946,339.913 687.946,364.941L687.946,540.997C687.946,566.025 666.661,586.345 640.443,586.345L543.55,586.345L586.683,559.026L641.541,559.087C652.686,559.087 660.023,551.871 660.023,541.232L659.885,363.659C659.885,353.021 652.322,345.861 641.178,345.861L396.866,345.847C385.721,345.847 377.557,353.114 377.557,363.753L377.716,539.795C377.716,550.434 384.268,558.883 395.413,558.883L442.233,558.996L439.873,561.276C439.873,561.276 421.135,573.68 411.667,580.714C405.417,585.358 399.632,586.26 396.423,586.337C395.655,586.324 394.891,586.293 394.133,586.245C393.915,586.219 393.801,586.198 393.801,586.198L393.729,586.218Z" style="fill:rgb(33,116,234);"/>
            </g>
            <path d="M459.325,288.95L464.174,258.916L575.229,258.916L580.568,288.95L615.503,288.95L605.934,237.612C604.108,231.235 599.978,226.496 591.019,225.191L448.335,224.991C440.498,225.313 435.588,229.121 433.075,235.782L424.565,288.95L459.325,288.95Z" style="fill:rgb(33,116,234);"/>
            <path d="M445.559,287.463C445.559,288.432 446.417,288.176 447.283,288.176C447.472,288.176 448.093,288.276 448.293,288.176C448.627,288.009 448.708,287.701 449.065,287.701C449.406,287.701 450.996,287.643 450.729,288.176C450.574,288.487 449.273,288.383 449.006,288.414C447.525,288.588 445.67,288.357 444.252,288.83C443.607,289.045 443.099,289.472 442.351,289.721C441.598,289.972 440.805,289.944 440.033,290.137C439.071,290.378 438.195,290.73 437.24,290.969C436.863,291.063 436.428,290.994 436.052,291.088C435.046,291.339 434.252,291.608 433.318,291.92C433.196,291.961 432.965,292.092 432.902,292.217C432.814,292.394 432.902,292.811 432.902,292.811C432.902,292.811 432.664,292.039 432.902,291.801C433.172,291.531 433.205,290.844 433.497,290.553C433.622,290.428 433.259,290.078 433.259,290.078C433.259,290.078 433.509,290.025 433.615,290.078C433.89,290.215 434.272,290.535 434.566,290.731" style="fill:rgb(33,116,234);"/>
            <path d="M450.848,290.85C450.848,291.026 450.6,291.553 450.729,291.682C450.81,291.763 451.064,291.779 451.145,291.86C451.475,292.191 451.442,292.854 451.442,293.465" style="fill:rgb(33,116,234);"/>
            <path d="M589.77,288.278C589.77,288.227 589.734,287.933 589.77,287.898C589.84,287.827 590.142,287.974 590.197,287.993C590.574,288.118 590.999,288.175 591.386,288.23C592.676,288.415 593.957,288.845 595.284,289.086C595.84,289.187 596.466,289.239 596.995,289.371C598.15,289.66 599.459,289.409 600.656,289.609C601.211,289.701 601.881,289.478 602.415,289.656C602.96,289.838 603.549,289.86 604.079,290.037C604.914,290.315 605.382,290.836 606.123,291.083C606.562,291.229 606.889,290.803 606.598,290.512C606.477,290.391 606.587,289.96 606.836,290.084C607.03,290.181 606.979,290.637 606.979,290.845C606.979,291.453 606.829,291.978 607.216,292.366C607.483,292.633 607.765,293.057 608.024,293.317C608.205,293.498 608.241,293.9 608.5,294.03C608.688,294.124 608.758,294.743 608.452,294.743" style="fill:rgb(33,116,234);"/>
            <path d="M589.009,295.646L587.963,295.646C587.899,295.646 587.589,295.7 587.535,295.646C587.404,295.515 587.571,294.958 587.63,294.838C587.681,294.738 587.554,294.439 587.63,294.363C587.886,294.107 588.197,293.843 588.439,293.602C588.593,293.448 588.437,292.987 588.534,292.794C588.76,292.34 588.897,291.925 589.152,291.415C589.244,291.231 589.173,291.014 589.294,290.892C589.468,290.719 589.149,289.801 589.199,289.752C589.251,289.7 589.418,290.009 589.437,290.037C589.616,290.305 589.738,290.669 589.817,290.988" style="fill:rgb(33,116,234);"/>
        </g>
    </g>
</svg>
