<?xml version="1.0" encoding="UTF-8" standalone="no"?>
<!DOCTYPE svg PUBLIC "-//W3C//DTD SVG 1.1//EN" "http://www.w3.org/Graphics/SVG/1.1/DTD/svg11.dtd">
<svg width="100%" height="100%" viewBox="0 0 416 555" version="1.1" xmlns="http://www.w3.org/2000/svg" xmlns:xlink="http://www.w3.org/1999/xlink" xml:space="preserve" xmlns:serif="http://www.serif.com/" style="fill-rule:evenodd;clip-rule:evenodd;stroke-linecap:round;stroke-linejoin:round;stroke-miterlimit:1.5;">
    <g id="Artboard1" transform="matrix(0.335228,0,0,0.317286,0,0)">
        <rect x="0" y="0" width="1240.16" height="1748.03" style="fill:none;"/>
        <g transform="matrix(2.98305,0,0,3.15173,-925.211,-441.985)">
            <g transform="matrix(1.03891,0,0,1.03891,-20.9303,-21.4544)">
                <circle cx="521.229" cy="464.038" r="54.064" style="fill:url(#_Linear1);stroke:black;stroke-width:0.8px;"/>
            </g>
            <path d="M494.644,335.703L554.736,336.743C529.495,348.043 506.113,362.028 483.725,377.448C467.721,387.431 456.189,399.577 445.123,411.949C436.478,421.947 429.209,433.126 422.782,445.026C418.293,452.297 415.03,460.009 411.651,468.548C407.682,479.102 406.534,489.528 406.057,499.923C404.215,496.121 402.301,489.893 400.301,480.703C398.592,468.502 398.48,456.395 399.465,444.353C401.779,427.902 405.82,412.107 413.84,399.46C418.953,390.328 424.825,381.515 432.951,373.651C440.491,366.035 448.285,359.435 456.3,353.72C464.246,348.735 472.461,344.356 481.041,340.798L494.644,335.703Z" style="fill:url(#_Linear2);stroke:black;stroke-width:0.83px;"/>
            <path d="M379.752,687.725C389.517,668.559 401.548,651.109 416.543,635.904C427.152,625.949 437.909,617.245 448.835,609.984L521.373,565.441C539.309,554.363 557.388,543.392 573.38,530.856C591.762,511.716 602.762,491.695 605.495,466.812C606.594,447.013 602.801,429.26 593.005,414.018C582.848,400.879 572.964,392.5 563.005,385.898L537.999,375.408L578.271,353.72C588.485,359.545 597.635,366.345 605.472,374.348C614.37,383.737 622.272,394.12 628.594,406.084C634.751,418.698 638.326,432.547 639.928,447.34C641.668,467.072 638.772,485.834 631.994,503.784C625.001,522.341 613.929,538.292 599.805,552.294C583.413,568.004 564.998,581.03 544.643,591.393L477.397,631.292L422.767,663.708L379.752,687.725Z" style="fill:url(#_Linear3);stroke:black;stroke-width:0.83px;"/>
            <path d="M438.102,470.852C438.98,478.702 440.459,485.716 443.904,495.169C448.749,506.314 455.765,515.38 461.625,521.579C467.355,526.997 473.701,531.612 479.43,534.618C487.887,538.915 496.889,541.933 504.965,543.948C489.736,551.884 475.449,560.4 461.868,569.35C455.272,564.638 448.83,559.344 442.741,552.73C437.166,545.99 433.641,538.69 430.856,531.189C429.217,523.644 428.126,513.433 428.698,505.723C429.107,500.212 430.356,494.656 431.878,489.268L438.102,470.852Z" style="fill:url(#_Linear4);stroke:black;stroke-width:0.83px;"/>
        </g>
        <g transform="matrix(2.98305,0,0,3.15173,-925.211,-441.985)">
            <g transform="matrix(0.74776,0.858949,-0.987483,0.859655,421.509,-551.089)">
                <path d="M677.635,242.854C677.635,239.555 674.557,236.877 670.764,236.877C666.972,236.877 663.894,239.555 663.894,242.854L663.894,267.762C663.894,271.06 666.972,273.738 670.764,273.738C674.557,273.738 677.635,271.06 677.635,267.762L677.635,242.854Z" style="fill:url(#_Linear5);stroke:black;stroke-width:1.39px;"/>
            </g>
            <g transform="matrix(1.07937,-1.18199e-16,0,1.39388,-204.589,-188.836)">
                <path d="M677.635,242.198C677.635,239.261 674.557,236.877 670.764,236.877C666.972,236.877 663.894,239.261 663.894,242.198L663.894,268.418C663.894,271.354 666.972,273.738 670.764,273.738C674.557,273.738 677.635,271.354 677.635,268.418L677.635,242.198Z" style="fill:url(#_Linear6);stroke:black;stroke-width:1.37px;"/>
            </g>
            <g transform="matrix(0.70946,0.777556,-0.637285,0.581473,328.134,-461.78)">
                <path d="M677.635,245.26C677.635,240.634 674.557,236.877 670.764,236.877C666.972,236.877 663.894,240.634 663.894,245.26L663.894,265.355C663.894,269.982 666.972,273.738 670.764,273.738C674.557,273.738 677.635,269.982 677.635,265.355L677.635,245.26Z" style="fill:url(#_Linear7);stroke:black;stroke-width:1.78px;"/>
            </g>
            <g transform="matrix(-0.732121,0.872317,1.00285,0.841676,603.256,-555.465)">
                <path d="M677.635,242.854C677.635,239.555 674.557,236.877 670.764,236.877C666.972,236.877 663.894,239.555 663.894,242.854L663.894,267.762C663.894,271.06 666.972,273.738 670.764,273.738C674.557,273.738 677.635,271.06 677.635,267.762L677.635,242.854Z" style="fill:url(#_Linear8);stroke:black;stroke-width:1.39px;"/>
            </g>
            <g transform="matrix(-0.701936,0.784355,0.642857,0.575307,705.554,-464.704)">
                <path d="M677.635,245.26C677.635,240.634 674.557,236.877 670.764,236.877C666.972,236.877 663.894,240.634 663.894,245.26L663.894,265.355C663.894,269.982 666.972,273.738 670.764,273.738C674.557,273.738 677.635,269.982 677.635,265.355L677.635,245.26Z" style="fill:url(#_Linear9);stroke:black;stroke-width:1.78px;"/>
            </g>
            <g transform="matrix(0.933061,0,0,0.985415,25.8303,6.10823)">
                <path d="M407.698,354.548C407.698,349.712 403.552,345.787 398.445,345.787L378.771,345.787C373.664,345.787 369.518,349.712 369.518,354.548L369.518,362.057C369.518,366.893 373.664,370.819 378.771,370.819L398.445,370.819C403.552,370.819 407.698,366.893 407.698,362.057L407.698,354.548Z" style="fill:url(#_Linear10);stroke:black;stroke-width:0.96px;"/>
            </g>
            <g transform="matrix(1.20002,0,0,1.25707,-102.974,-112.802)">
                <path d="M393.729,586.218C369.18,584.469 349.804,564.876 349.804,540.997L349.804,364.941C349.804,339.913 371.089,319.594 397.307,319.594L640.443,319.594C666.661,319.594 687.946,339.913 687.946,364.941L687.946,540.997C687.946,566.025 666.661,586.345 640.443,586.345L543.55,586.345L586.683,559.026L641.541,559.087C652.686,559.087 660.023,551.871 660.023,541.232L659.885,363.659C659.885,353.021 652.322,345.861 641.178,345.861L396.866,345.847C385.721,345.847 377.557,353.114 377.557,363.753L377.716,539.795C377.716,550.434 384.268,558.883 395.413,558.883L442.233,558.996L439.873,561.276C439.873,561.276 421.135,573.68 411.667,580.714C405.417,585.358 399.632,586.26 396.423,586.337C395.655,586.324 394.891,586.293 394.133,586.245C393.915,586.219 393.801,586.198 393.801,586.198L393.729,586.218Z" style="fill:url(#_Linear11);stroke:black;stroke-width:1.39px;"/>
            </g>
            <path d="M459.325,288.95L464.174,258.916L575.229,258.916L580.568,288.95L615.503,288.95L605.934,237.612C604.108,231.235 599.978,226.496 591.019,225.191L448.335,224.991C440.498,225.313 435.588,229.121 433.075,235.782L424.565,288.95L459.325,288.95Z" style="fill:url(#_Linear12);stroke:black;stroke-width:1.71px;"/>
            <path d="M445.559,287.463C445.559,288.432 446.417,288.176 447.283,288.176C447.472,288.176 448.093,288.276 448.293,288.176C448.627,288.009 448.708,287.701 449.065,287.701C449.406,287.701 450.996,287.643 450.729,288.176C450.574,288.487 449.273,288.383 449.006,288.414C447.525,288.588 445.67,288.357 444.252,288.83C443.607,289.045 443.099,289.472 442.351,289.721C441.598,289.972 440.805,289.944 440.033,290.137C439.071,290.378 438.195,290.73 437.24,290.969C436.863,291.063 436.428,290.994 436.052,291.088C435.046,291.339 434.252,291.608 433.318,291.92C433.196,291.961 432.965,292.092 432.902,292.217C432.814,292.394 432.902,292.811 432.902,292.811C432.902,292.811 432.664,292.039 432.902,291.801C433.172,291.531 433.205,290.844 433.497,290.553C433.622,290.428 433.259,290.078 433.259,290.078C433.259,290.078 433.509,290.025 433.615,290.078C433.89,290.215 434.272,290.535 434.566,290.731" style="fill:url(#_Linear13);"/>
            <path d="M425.915,287.883C425.863,288.029 425.816,288.178 425.774,288.328C425.91,288.047 426.103,287.658 426.326,287.237C426.607,286.838 426.916,286.474 427.245,286.144C426.772,286.617 426.072,287.842 425.745,288.437C425.709,288.575 425.676,288.715 425.648,288.856C425.68,288.78 425.713,288.708 425.747,288.639C426.556,287.02 429.198,284.86 430.788,284.33C431.171,284.203 431.535,284.082 431.896,283.966L431.727,282.226C431.727,282.226 435.089,282.177 436.796,282.76C437.221,282.623 437.648,282.487 438.093,282.376C438.502,282.274 439.137,282.169 439.629,282.095C441.094,280.479 443.209,279.463 445.559,279.463C446.389,279.463 447.19,279.59 447.943,279.825C448.322,279.746 448.699,279.701 449.065,279.701C449.636,279.701 451.531,279.789 452.649,280.111C454.161,280.545 455.306,281.298 456.102,282.029C457.54,283.35 458.338,284.936 458.638,286.66C458.898,288.152 458.828,289.867 457.885,291.754C457.288,292.947 456.369,294.092 454.975,294.988C453.89,295.685 449.243,296.407 449.243,296.407C449.243,296.407 449.796,296.376 449.941,296.359C449.089,296.459 447.411,296.508 446.688,296.525C446.161,296.785 445.426,297.129 444.88,297.311C443.98,297.611 442.232,297.875 441.842,297.932C440.931,298.171 440.092,298.502 439.18,298.73C438.763,298.835 438.075,298.915 437.552,298.966C436.959,299.132 436.44,299.312 435.848,299.509C436.628,299.249 437.687,298.504 438.573,297.656C437.366,298.353 435.997,298.721 434.612,298.731L432.902,300.811C431.359,300.811 429.895,300.369 428.65,299.588C427.098,298.679 425.59,297.096 425.049,294.338C425.024,294.209 425.005,293.981 424.996,293.685C424.865,292.721 424.768,291.467 424.953,290.499C425.139,289.523 425.475,288.649 425.915,287.883ZM425.915,287.883C426.305,286.772 426.962,285.774 427.84,284.896C427.369,285.367 426.785,286.369 426.326,287.237C426.181,287.443 426.043,287.658 425.915,287.883ZM440.287,294.827C440.196,294.966 440.1,295.103 439.999,295.238C439.546,296.082 438.989,297.028 438.559,297.458C439.265,296.752 439.879,295.875 440.287,294.827ZM453.376,285.754C453.496,286.304 453.559,286.876 453.559,287.463C453.559,286.832 453.493,286.265 453.376,285.754Z" style="fill:white;"/>
            <path d="M450.848,290.85C450.848,291.026 450.6,291.553 450.729,291.682C450.81,291.763 451.064,291.779 451.145,291.86C451.475,292.191 451.442,292.854 451.442,293.465" style="fill:url(#_Linear14);"/>
            <path d="M458.701,289.315C459.17,290.578 459.442,292.01 459.442,293.465C459.442,297.88 455.858,301.465 451.442,301.465C447.753,301.465 444.644,298.962 443.721,295.563C443.284,294.783 442.957,293.886 442.794,292.858C442.643,291.906 443.114,288.856 443.114,288.856C443.114,288.856 442.848,290.405 442.848,290.85C442.848,286.435 446.433,282.85 450.848,282.85C454.738,282.85 457.984,285.633 458.701,289.315Z" style="fill:white;"/>
            <path d="M589.77,288.278C589.77,288.227 589.734,287.933 589.77,287.898C589.84,287.827 590.142,287.974 590.197,287.993C590.574,288.118 590.999,288.175 591.386,288.23C592.676,288.415 593.957,288.845 595.284,289.086C595.84,289.187 596.466,289.239 596.995,289.371C598.15,289.66 599.459,289.409 600.656,289.609C601.211,289.701 601.881,289.478 602.415,289.656C602.96,289.838 603.549,289.86 604.079,290.037C604.914,290.315 605.382,290.836 606.123,291.083C606.562,291.229 606.889,290.803 606.598,290.512C606.477,290.391 606.587,289.96 606.836,290.084C607.03,290.181 606.979,290.637 606.979,290.845C606.979,291.453 606.829,291.978 607.216,292.366C607.483,292.633 607.765,293.057 608.024,293.317C608.205,293.498 608.241,293.9 608.5,294.03C608.688,294.124 608.758,294.743 608.452,294.743" style="fill:url(#_Linear15);"/>
            <path d="M581.79,288.839C581.79,288.839 581.979,285.959 582.178,285.365C582.662,283.925 583.422,282.932 584.113,282.241C585.044,281.309 586.225,280.562 587.707,280.16C588.943,279.826 593.218,280.585 593.218,280.585C593.218,280.585 592.822,280.435 592.727,280.403C592.566,280.349 592.225,280.268 592.225,280.268C592.225,280.268 592.423,280.297 592.517,280.311C593.906,280.509 595.287,280.955 596.715,281.215C597.302,281.322 597.946,281.402 598.535,281.521C598.949,281.524 600.417,281.543 601.464,281.652C602.319,281.678 603.75,281.757 604.667,281.987C604.578,281.963 604.507,281.945 604.507,281.945C604.507,281.945 604.959,282.033 605.475,282.15C606.957,281.895 608.615,282.03 610.414,282.929C611.949,283.697 613.234,284.902 614.087,286.616C614.406,287.256 614.651,288.192 614.803,289.078C615.081,289.425 615.34,289.807 615.574,290.227C616.376,291.663 616.839,293.87 616.569,295.693C615.91,300.135 612.803,302.743 608.452,302.743C605.041,302.743 602.125,300.603 600.976,297.594C600.485,297.591 599.932,297.575 599.523,297.526C599.26,297.522 596.406,297.47 595.055,297.132C594.685,297.04 594.242,297.028 593.853,296.957C592.78,296.762 591.742,296.421 590.7,296.224C590.395,296.26 590.084,296.278 589.77,296.278C585.543,296.278 582.078,292.993 581.79,288.839ZM599.272,293.86C599.212,293.591 599.162,293.316 599.121,293.032C598.806,292.076 598.624,291.028 598.633,289.976C598.472,291.249 598.654,292.576 599.272,293.86ZM601.452,297.663C601.437,297.655 601.421,297.647 601.407,297.638C601.437,297.703 601.467,297.766 601.499,297.828C601.784,298.258 602.115,298.721 602.368,298.974C602.213,298.82 601.978,298.55 601.764,298.3C602.625,299.704 603.8,300.624 604.922,301.185C603.698,300.573 602.239,298.741 601.452,297.663ZM601.565,290.673C602.959,288.321 605.523,286.743 608.452,286.743C605.318,286.743 602.84,288.145 601.565,290.673ZM581.79,288.839C581.777,288.653 581.77,288.466 581.77,288.278C581.77,288.38 581.79,288.839 581.79,288.839Z" style="fill:white;"/>
            <path d="M589.009,295.646L587.963,295.646C587.899,295.646 587.589,295.7 587.535,295.646C587.404,295.515 587.571,294.958 587.63,294.838C587.681,294.738 587.554,294.439 587.63,294.363C587.886,294.107 588.197,293.843 588.439,293.602C588.593,293.448 588.437,292.987 588.534,292.794C588.76,292.34 588.897,291.925 589.152,291.415C589.244,291.231 589.173,291.014 589.294,290.892C589.468,290.719 589.149,289.801 589.199,289.752C589.251,289.7 589.418,290.009 589.437,290.037C589.616,290.305 589.738,290.669 589.817,290.988" style="fill:url(#_Linear16);"/>
            <path d="M596.319,285.958C596.319,285.958 596.137,285.665 596.093,285.599C596.17,285.715 596.246,285.835 596.319,285.958ZM580.889,291.005C581.024,290.283 581.19,289.593 581.378,289.217C581.605,288.763 581.741,288.348 581.996,287.838C581.769,288.291 581.568,289.006 581.431,289.567C581.495,289.43 581.559,289.304 581.625,289.189C581.898,288.385 582.304,287.319 582.789,286.437C583.117,285.21 583.411,284.226 583.543,284.094C585.543,282.094 587.951,281.35 590.745,281.893C591.644,282.068 592.685,282.424 593.742,283.144C594.46,283.633 596.319,285.958 596.319,285.958C596.872,286.886 597.321,288.016 597.578,289.047C598.066,290.996 597.791,292.959 596.944,294.62C596.987,294.956 597.009,295.298 597.009,295.646C597.009,300.062 593.424,303.646 589.009,303.646L587.963,303.646C588.117,303.646 588.736,303.608 588.736,303.608C588.736,303.608 585.331,303.392 584.525,303.062C583.397,302.601 582.538,301.963 581.879,301.303C580.787,300.212 579.769,298.59 579.534,296.367C579.366,294.781 580.119,291.972 580.475,291.261C579.975,292.26 579.729,295.902 579.729,295.902C579.729,295.902 580.207,293.153 580.889,291.005ZM595.074,297.57C595.053,297.619 595.033,297.668 595.012,297.717C594.956,297.956 594.895,298.162 594.829,298.321C594.902,298.149 594.988,297.885 595.074,297.57ZM581.945,289.775C581.646,290.934 581.45,291.852 581.45,291.852C581.45,291.852 581.658,290.957 581.945,289.775Z" style="fill:white;"/>
        </g>
    </g>
    <defs>
        <linearGradient id="_Linear1" x1="0" y1="0" x2="1" y2="0" gradientUnits="userSpaceOnUse" gradientTransform="matrix(64.8619,-436.446,436.446,64.8619,489.244,568.677)"><stop offset="0" style="stop-color:rgb(139,238,255);stop-opacity:1"/><stop offset="1" style="stop-color:rgb(16,72,81);stop-opacity:1"/></linearGradient>
        <linearGradient id="_Linear2" x1="0" y1="0" x2="1" y2="0" gradientUnits="userSpaceOnUse" gradientTransform="matrix(67.3856,-453.428,453.428,67.3856,487.35,569.35)"><stop offset="0" style="stop-color:rgb(139,238,255);stop-opacity:1"/><stop offset="1" style="stop-color:rgb(16,72,81);stop-opacity:1"/></linearGradient>
        <linearGradient id="_Linear3" x1="0" y1="0" x2="1" y2="0" gradientUnits="userSpaceOnUse" gradientTransform="matrix(67.3856,-453.428,453.428,67.3856,487.35,569.35)"><stop offset="0" style="stop-color:rgb(139,238,255);stop-opacity:1"/><stop offset="1" style="stop-color:rgb(16,72,81);stop-opacity:1"/></linearGradient>
        <linearGradient id="_Linear4" x1="0" y1="0" x2="1" y2="0" gradientUnits="userSpaceOnUse" gradientTransform="matrix(67.3856,-453.428,453.428,67.3856,487.35,569.35)"><stop offset="0" style="stop-color:rgb(139,238,255);stop-opacity:1"/><stop offset="1" style="stop-color:rgb(16,72,81);stop-opacity:1"/></linearGradient>
        <linearGradient id="_Linear5" x1="0" y1="0" x2="1" y2="0" gradientUnits="userSpaceOnUse" gradientTransform="matrix(-60.807,-127.923,147.065,-52.8922,616.443,286.843)"><stop offset="0" style="stop-color:white;stop-opacity:1"/><stop offset="1" style="stop-color:rgb(166,166,166);stop-opacity:1"/></linearGradient>
        <linearGradient id="_Linear6" x1="0" y1="0" x2="1" y2="0" gradientUnits="userSpaceOnUse" gradientTransform="matrix(74.9068,-116.365,150.272,58.0052,744.688,296.888)"><stop offset="0" style="stop-color:white;stop-opacity:1"/><stop offset="1" style="stop-color:rgb(166,166,166);stop-opacity:1"/></linearGradient>
        <linearGradient id="_Linear7" x1="0" y1="0" x2="1" y2="0" gradientUnits="userSpaceOnUse" gradientTransform="matrix(-62.0598,-195.958,160.607,-75.7197,655.566,304.453)"><stop offset="0" style="stop-color:white;stop-opacity:1"/><stop offset="1" style="stop-color:rgb(166,166,166);stop-opacity:1"/></linearGradient>
        <linearGradient id="_Linear8" x1="0" y1="0" x2="1" y2="0" gradientUnits="userSpaceOnUse" gradientTransform="matrix(-154.736,-32.3409,-37.1805,134.595,527.218,380.853)"><stop offset="0" style="stop-color:white;stop-opacity:1"/><stop offset="1" style="stop-color:rgb(166,166,166);stop-opacity:1"/></linearGradient>
        <linearGradient id="_Linear9" x1="0" y1="0" x2="1" y2="0" gradientUnits="userSpaceOnUse" gradientTransform="matrix(-166.054,-55.5436,-45.5236,202.603,555.645,441.282)"><stop offset="0" style="stop-color:white;stop-opacity:1"/><stop offset="1" style="stop-color:rgb(166,166,166);stop-opacity:1"/></linearGradient>
        <linearGradient id="_Linear10" x1="0" y1="0" x2="1" y2="0" gradientUnits="userSpaceOnUse" gradientTransform="matrix(86.6528,-164.6,173.836,82.0491,614.512,222.122)"><stop offset="0" style="stop-color:white;stop-opacity:1"/><stop offset="1" style="stop-color:rgb(166,166,166);stop-opacity:1"/></linearGradient>
        <linearGradient id="_Linear11" x1="0" y1="0" x2="1" y2="0" gradientUnits="userSpaceOnUse" gradientTransform="matrix(67.3759,-129.03,135.164,64.3181,585.142,268.714)"><stop offset="0" style="stop-color:white;stop-opacity:1"/><stop offset="1" style="stop-color:rgb(166,166,166);stop-opacity:1"/></linearGradient>
        <linearGradient id="_Linear12" x1="0" y1="0" x2="1" y2="0" gradientUnits="userSpaceOnUse" gradientTransform="matrix(80.8524,-162.2,162.2,80.8524,599.208,224.991)"><stop offset="0" style="stop-color:white;stop-opacity:1"/><stop offset="1" style="stop-color:rgb(166,166,166);stop-opacity:1"/></linearGradient>
        <linearGradient id="_Linear13" x1="0" y1="0" x2="1" y2="0" gradientUnits="userSpaceOnUse" gradientTransform="matrix(80.8524,-162.2,162.2,80.8524,599.208,224.991)"><stop offset="0" style="stop-color:white;stop-opacity:1"/><stop offset="1" style="stop-color:rgb(166,166,166);stop-opacity:1"/></linearGradient>
        <linearGradient id="_Linear14" x1="0" y1="0" x2="1" y2="0" gradientUnits="userSpaceOnUse" gradientTransform="matrix(80.8524,-162.2,162.2,80.8524,599.208,224.991)"><stop offset="0" style="stop-color:white;stop-opacity:1"/><stop offset="1" style="stop-color:rgb(166,166,166);stop-opacity:1"/></linearGradient>
        <linearGradient id="_Linear15" x1="0" y1="0" x2="1" y2="0" gradientUnits="userSpaceOnUse" gradientTransform="matrix(80.8524,-162.2,162.2,80.8524,599.208,224.991)"><stop offset="0" style="stop-color:white;stop-opacity:1"/><stop offset="1" style="stop-color:rgb(166,166,166);stop-opacity:1"/></linearGradient>
        <linearGradient id="_Linear16" x1="0" y1="0" x2="1" y2="0" gradientUnits="userSpaceOnUse" gradientTransform="matrix(80.8524,-162.2,162.2,80.8524,599.208,224.991)"><stop offset="0" style="stop-color:white;stop-opacity:1"/><stop offset="1" style="stop-color:rgb(166,166,166);stop-opacity:1"/></linearGradient>
    </defs>
</svg>
